<svg id="lightblue" xmlns="http://www.w3.org/2000/svg" xmlns:xlink="http://www.w3.org/1999/xlink" viewBox="0 0 26.87 22.57"><defs><style>.cls-1{fill:none;}.cls-2{isolation:isolate;}.cls-3{clip-path:url(#clip-path);}.cls-4{fill:#2c7785;}.cls-5{clip-path:url(#clip-path-2);}.cls-6{fill:#3692a3;}.cls-7{fill:#3896a8;}.cls-8{fill:#358d9e;}.cls-9{fill:#358e9f;}.cls-10{fill:#2b7280;}.cls-11{clip-path:url(#clip-path-3);}.cls-12{fill:#338999;}.cls-13{fill:#318494;}.cls-14{fill:#30808f;}.cls-15{fill:#2e7b8a;}.cls-16{fill:#49c4dc;}</style><clipPath id="clip-path" transform="translate(-77.32 -38.19)"><path class="cls-1" d="M82.14,60.34,77.8,56a1.36,1.36,0,0,0,1,.41l4.35,4.36A1.35,1.35,0,0,1,82.14,60.34Z"/></clipPath><clipPath id="clip-path-2" transform="translate(-77.32 -38.19)"><path class="cls-1" d="M99.36,38.6,103.7,43a1.7,1.7,0,0,1,.48,1.24l-4.34-4.36A1.7,1.7,0,0,0,99.36,38.6Z"/></clipPath><clipPath id="clip-path-3" transform="translate(-77.32 -38.19)"><path class="cls-1" d="M99.73,54.76l4.34,4.36a1.58,1.58,0,0,1-1.47,1.64L98.26,56.4A1.58,1.58,0,0,0,99.73,54.76Z"/></clipPath></defs><g id="agv_lightblue"><g class="cls-2"><g class="cls-2"><g class="cls-3"><g class="cls-2"><path class="cls-4" d="M78.76,56.4l4.35,4.36a1.35,1.35,0,0,1-1-.42L77.8,56a1.36,1.36,0,0,0,1,.41" transform="translate(-77.32 -38.19)"/></g></g></g><g class="cls-2"><g class="cls-5"><g class="cls-2"><path class="cls-6" d="M99.36,38.6,103.7,43l.15.17-4.34-4.36-.15-.17" transform="translate(-77.32 -38.19)"/><path class="cls-7" d="M99.51,38.77l4.34,4.36a1.47,1.47,0,0,1,.21.39l-4.34-4.35a1.69,1.69,0,0,0-.21-.4" transform="translate(-77.32 -38.19)"/><path class="cls-6" d="M99.72,39.17l4.34,4.35a2,2,0,0,1,.12.49l-4.34-4.36a1.88,1.88,0,0,0-.12-.48" transform="translate(-77.32 -38.19)"/><path class="cls-8" d="M99.84,39.65,104.18,44a1.2,1.2,0,0,1,0,.19l-4.34-4.36v-.19" transform="translate(-77.32 -38.19)"/></g></g></g><polygon class="cls-9" points="22.53 1.65 26.87 6.01 26.76 20.93 22.41 16.57 22.53 1.65"/><polygon class="cls-10" points="20.94 18.21 25.28 22.57 5.79 22.57 1.45 18.21 20.94 18.21"/><g class="cls-2"><g class="cls-11"><g class="cls-2"><path class="cls-8" d="M99.73,54.76l4.34,4.36v.13l-4.35-4.36a.62.62,0,0,0,0-.13" transform="translate(-77.32 -38.19)"/><path class="cls-12" d="M99.72,54.89l4.35,4.36c0,.08,0,.17,0,.26l-4.35-4.36a1.09,1.09,0,0,0,0-.26" transform="translate(-77.32 -38.19)"/><path class="cls-13" d="M99.68,55.15,104,59.51a2.25,2.25,0,0,1-.08.24l-4.34-4.36a1.09,1.09,0,0,0,.07-.24" transform="translate(-77.32 -38.19)"/><path class="cls-14" d="M99.61,55.39,104,59.75a2.29,2.29,0,0,1-.1.23l-4.34-4.36a1.6,1.6,0,0,0,.1-.23" transform="translate(-77.32 -38.19)"/><path class="cls-15" d="M99.51,55.62,103.85,60l-.17.24-4.34-4.36a1.46,1.46,0,0,0,.17-.24" transform="translate(-77.32 -38.19)"/><path class="cls-4" d="M99.34,55.86l4.34,4.36a1.39,1.39,0,0,1-1.08.54L98.26,56.4a1.41,1.41,0,0,0,1.08-.54" transform="translate(-77.32 -38.19)"/></g></g></g><path class="cls-16" d="M98.39,38.19a1.54,1.54,0,0,1,1.45,1.65l-.11,14.92a1.58,1.58,0,0,1-1.47,1.64H78.76a1.54,1.54,0,0,1-1.44-1.64l.11-14.92a1.58,1.58,0,0,1,1.47-1.65Z" transform="translate(-77.32 -38.19)"/></g></g></svg>