<svg id="yellow" xmlns="http://www.w3.org/2000/svg" xmlns:xlink="http://www.w3.org/1999/xlink" viewBox="0 0 26.83 22.57"><defs><style>.cls-1{fill:none;}.cls-2{isolation:isolate;}.cls-3{clip-path:url(#clip-path);}.cls-4{fill:#85830b;}.cls-5{clip-path:url(#clip-path-2);}.cls-6{fill:#a3a10d;}.cls-7{fill:#a8a60e;}.cls-8{fill:#9e9c0d;}.cls-9{fill:#807e0b;}.cls-10{fill:#9f9d0d;}.cls-11{clip-path:url(#clip-path-3);}.cls-12{fill:#99970d;}.cls-13{fill:#94920c;}.cls-14{fill:#8f8d0c;}.cls-15{fill:#8a880b;}.cls-16{fill:#dcd812;}</style><clipPath id="clip-path" transform="translate(-78.35 -12)"><path class="cls-1" d="M83.17,34.09l-4.35-4.36a1.68,1.68,0,0,0,1.16.48l4.34,4.36A1.63,1.63,0,0,1,83.17,34.09Z"/></clipPath><clipPath id="clip-path-2" transform="translate(-78.35 -12)"><path class="cls-1" d="M100.37,12.48l4.34,4.35a1.59,1.59,0,0,1,.47,1.17l-4.34-4.36A1.59,1.59,0,0,0,100.37,12.48Z"/></clipPath><clipPath id="clip-path-3" transform="translate(-78.35 -12)"><path class="cls-1" d="M100.73,28.57l4.34,4.35a1.66,1.66,0,0,1-1.65,1.65l-4.34-4.36A1.66,1.66,0,0,0,100.73,28.57Z"/></clipPath></defs><g id="agv_yellow"><g class="cls-2"><g class="cls-2"><g class="cls-3"><g class="cls-2"><path class="cls-4" d="M80,30.21l4.34,4.36a1.63,1.63,0,0,1-1.15-.48l-4.35-4.36a1.68,1.68,0,0,0,1.16.48" transform="translate(-78.35 -12)"/></g></g></g><g class="cls-2"><g class="cls-5"><g class="cls-2"><path class="cls-6" d="M100.37,12.48l4.34,4.35a1.46,1.46,0,0,1,.16.19l-4.35-4.36a.9.9,0,0,0-.15-.18" transform="translate(-78.35 -12)"/><path class="cls-7" d="M100.52,12.66,104.87,17a1.65,1.65,0,0,1,.2.37L100.73,13a1.36,1.36,0,0,0-.21-.37" transform="translate(-78.35 -12)"/><path class="cls-6" d="M100.73,13l4.34,4.36a1.67,1.67,0,0,1,.11.44l-4.34-4.36a1.67,1.67,0,0,0-.11-.44" transform="translate(-78.35 -12)"/><path class="cls-8" d="M100.84,13.47l4.34,4.36V18l-4.34-4.36v-.17" transform="translate(-78.35 -12)"/></g></g></g><polygon class="cls-9" points="20.73 18.21 25.07 22.57 5.97 22.57 1.63 18.21 20.73 18.21"/><polygon class="cls-10" points="22.49 1.64 26.83 6 26.72 20.93 22.38 16.57 22.49 1.64"/><g class="cls-2"><g class="cls-11"><g class="cls-2"><path class="cls-8" d="M100.73,28.57l4.34,4.35V33l-4.35-4.36a.41.41,0,0,0,0-.11" transform="translate(-78.35 -12)"/><path class="cls-12" d="M100.72,28.68,105.07,33a2,2,0,0,1,0,.24l-4.34-4.36a1,1,0,0,0,0-.24" transform="translate(-78.35 -12)"/><path class="cls-13" d="M100.69,28.92,105,33.28a1.87,1.87,0,0,1-.07.22l-4.34-4.36a1.87,1.87,0,0,0,.07-.22" transform="translate(-78.35 -12)"/><path class="cls-14" d="M100.62,29.14,105,33.5a2.14,2.14,0,0,1-.1.22l-4.34-4.36a2.14,2.14,0,0,0,.1-.22" transform="translate(-78.35 -12)"/><path class="cls-15" d="M100.52,29.36l4.34,4.36a1.88,1.88,0,0,1-.16.23l-4.34-4.35c.06-.08.11-.16.16-.24" transform="translate(-78.35 -12)"/><path class="cls-4" d="M100.36,29.6,104.7,34a1.65,1.65,0,0,1-1.28.62l-4.34-4.36a1.67,1.67,0,0,0,1.28-.61" transform="translate(-78.35 -12)"/></g></g></g><path class="cls-16" d="M99.21,12a1.62,1.62,0,0,1,1.63,1.64l-.11,14.93a1.66,1.66,0,0,1-1.65,1.64H80a1.63,1.63,0,0,1-1.63-1.64l.11-14.93A1.66,1.66,0,0,1,80.12,12Z" transform="translate(-78.35 -12)"/></g></g></svg>