<svg id="deepred" xmlns="http://www.w3.org/2000/svg" xmlns:xlink="http://www.w3.org/1999/xlink" viewBox="0 0 26.82 22.57"><defs><style>.cls-1{fill:none;}.cls-2{isolation:isolate;}.cls-3{clip-path:url(#clip-path);}.cls-4{fill:#631100;}.cls-5{clip-path:url(#clip-path-2);}.cls-6{fill:#7a1400;}.cls-7{fill:#7e1500;}.cls-8{fill:#761400;}.cls-9{fill:#771400;}.cls-10{fill:#601000;}.cls-11{clip-path:url(#clip-path-3);}.cls-12{fill:#731300;}.cls-13{fill:#6f1300;}.cls-14{fill:#6b1200;}.cls-15{fill:#671100;}.cls-16{fill:#a51c00;}</style><clipPath id="clip-path" transform="translate(-122.37 -12.19)"><path class="cls-1" d="M127.19,34.28l-4.34-4.36a1.59,1.59,0,0,0,1.15.48l4.34,4.36A1.63,1.63,0,0,1,127.19,34.28Z"/></clipPath><clipPath id="clip-path-2" transform="translate(-122.37 -12.19)"><path class="cls-1" d="M144.37,12.67,148.71,17a1.59,1.59,0,0,1,.47,1.17l-4.34-4.36A1.55,1.55,0,0,0,144.37,12.67Z"/></clipPath><clipPath id="clip-path-3" transform="translate(-122.37 -12.19)"><path class="cls-1" d="M144.73,28.75l4.34,4.36a1.66,1.66,0,0,1-1.65,1.65l-4.34-4.36A1.66,1.66,0,0,0,144.73,28.75Z"/></clipPath></defs><g id="agv_deepred"><g class="cls-2"><g class="cls-2"><g class="cls-3"><g class="cls-2"><path class="cls-4" d="M124,30.4l4.34,4.36a1.63,1.63,0,0,1-1.15-.48l-4.34-4.36a1.59,1.59,0,0,0,1.15.48" transform="translate(-122.37 -12.19)"/></g></g></g><g class="cls-2"><g class="cls-5"><g class="cls-2"><path class="cls-6" d="M144.37,12.67,148.71,17a1.46,1.46,0,0,1,.16.19l-4.34-4.36a.93.93,0,0,0-.16-.18" transform="translate(-122.37 -12.19)"/><path class="cls-7" d="M144.53,12.85l4.34,4.36a1.65,1.65,0,0,1,.2.37l-4.34-4.36a1.65,1.65,0,0,0-.2-.37" transform="translate(-122.37 -12.19)"/><path class="cls-6" d="M144.73,13.22l4.34,4.36a1.67,1.67,0,0,1,.11.44l-4.34-4.36a1.67,1.67,0,0,0-.11-.44" transform="translate(-122.37 -12.19)"/><path class="cls-8" d="M144.84,13.66,149.18,18a1,1,0,0,1,0,.17l-4.34-4.36v-.17" transform="translate(-122.37 -12.19)"/></g></g></g><polygon class="cls-9" points="22.47 1.64 26.82 6 26.7 20.92 22.36 16.56 22.47 1.64"/><polygon class="cls-10" points="20.71 18.21 25.05 22.57 5.97 22.57 1.63 18.21 20.71 18.21"/><g class="cls-2"><g class="cls-11"><g class="cls-2"><path class="cls-8" d="M144.73,28.75l4.34,4.36v.11l-4.35-4.36a.37.37,0,0,0,0-.11" transform="translate(-122.37 -12.19)"/><path class="cls-12" d="M144.72,28.86l4.35,4.36a2,2,0,0,1,0,.24l-4.34-4.35a1,1,0,0,0,0-.25" transform="translate(-122.37 -12.19)"/><path class="cls-13" d="M144.69,29.11,149,33.46a2,2,0,0,1-.07.23l-4.34-4.36a1.87,1.87,0,0,0,.07-.22" transform="translate(-122.37 -12.19)"/><path class="cls-14" d="M144.62,29.33,149,33.69a2.14,2.14,0,0,1-.1.22l-4.34-4.36a2.14,2.14,0,0,0,.1-.22" transform="translate(-122.37 -12.19)"/><path class="cls-15" d="M144.52,29.55l4.34,4.36-.16.24-4.34-4.36.16-.24" transform="translate(-122.37 -12.19)"/><path class="cls-4" d="M144.36,29.79l4.34,4.36a1.67,1.67,0,0,1-1.28.61l-4.34-4.36a1.67,1.67,0,0,0,1.28-.61" transform="translate(-122.37 -12.19)"/></g></g></g><path class="cls-16" d="M143.22,12.19a1.62,1.62,0,0,1,1.62,1.64l-.11,14.92a1.66,1.66,0,0,1-1.65,1.65H124a1.63,1.63,0,0,1-1.63-1.65l.11-14.92a1.66,1.66,0,0,1,1.66-1.64Z" transform="translate(-122.37 -12.19)"/></g></g></svg>