<svg id="charge" xmlns="http://www.w3.org/2000/svg" xmlns:xlink="http://www.w3.org/1999/xlink" viewBox="0 0 29.65 22.57"><defs><style>.cls-1{fill:none;}.cls-2{isolation:isolate;}.cls-3{clip-path:url(#clip-path);}.cls-4{fill:#853000;}.cls-5{clip-path:url(#clip-path-2);}.cls-6{fill:#a33c00;}.cls-7{fill:#a83d00;}.cls-8{fill:#9e3a00;}.cls-9{fill:#9f3a00;}.cls-10{fill:#802f00;}.cls-11{clip-path:url(#clip-path-3);}.cls-12{fill:#993800;}.cls-13{fill:#943600;}.cls-14{fill:#8f3400;}.cls-15{fill:#8a3200;}.cls-16{fill:#dc5000;}.cls-17{fill:#1f1fff;}</style><clipPath id="clip-path" transform="translate(-25.35 -12.67)"><path class="cls-1" d="M30.17,34.76l-4.34-4.35a1.64,1.64,0,0,0,1.15.47l4.34,4.36A1.61,1.61,0,0,1,30.17,34.76Z"/></clipPath><clipPath id="clip-path-2" transform="translate(-25.35 -12.67)"><path class="cls-1" d="M50.2,13.16l4.34,4.36A1.58,1.58,0,0,1,55,18.67l-4.34-4.36A1.59,1.59,0,0,0,50.2,13.16Z"/></clipPath><clipPath id="clip-path-3" transform="translate(-25.35 -12.67)"><path class="cls-1" d="M50.55,29.23l4.34,4.36a1.66,1.66,0,0,1-1.65,1.65L48.9,30.88A1.66,1.66,0,0,0,50.55,29.23Z"/></clipPath></defs><g id="agv_orange"><g class="cls-2"><g class="cls-2"><g class="cls-3"><g class="cls-2"><path class="cls-4" d="M27,30.88l4.34,4.36a1.61,1.61,0,0,1-1.15-.48l-4.34-4.35a1.64,1.64,0,0,0,1.15.47" transform="translate(-25.35 -12.67)"/></g></g></g><g class="cls-2"><g class="cls-5"><g class="cls-2"><path class="cls-6" d="M50.2,13.16l4.34,4.36.15.17-4.35-4.36a1.15,1.15,0,0,0-.14-.17" transform="translate(-25.35 -12.67)"/><path class="cls-7" d="M50.34,13.33l4.35,4.36a1.52,1.52,0,0,1,.2.38l-4.34-4.36a1.41,1.41,0,0,0-.21-.38" transform="translate(-25.35 -12.67)"/><path class="cls-6" d="M50.55,13.71l4.34,4.36a1.58,1.58,0,0,1,.11.44l-4.34-4.36a1.67,1.67,0,0,0-.11-.44" transform="translate(-25.35 -12.67)"/><path class="cls-8" d="M50.66,14.15,55,18.51v.16l-4.34-4.36v-.16" transform="translate(-25.35 -12.67)"/></g></g></g><polygon class="cls-9" points="25.31 1.64 29.65 6 29.54 20.92 25.19 16.56 25.31 1.64"/><polygon class="cls-10" points="23.54 18.21 27.88 22.57 5.97 22.57 1.63 18.21 23.54 18.21"/><g class="cls-2"><g class="cls-11"><g class="cls-2"><path class="cls-8" d="M50.55,29.23l4.34,4.36a.49.49,0,0,1,0,.12l-4.34-4.36a.49.49,0,0,0,0-.12" transform="translate(-25.35 -12.67)"/><path class="cls-12" d="M50.54,29.35l4.34,4.36a1,1,0,0,1,0,.24l-4.34-4.36a2,2,0,0,0,0-.24" transform="translate(-25.35 -12.67)"/><path class="cls-13" d="M50.51,29.59,54.85,34a1.42,1.42,0,0,1-.07.22l-4.34-4.36a1.42,1.42,0,0,0,.07-.22" transform="translate(-25.35 -12.67)"/><path class="cls-14" d="M50.44,29.81l4.34,4.36a1.47,1.47,0,0,1-.1.22L50.34,30a1.47,1.47,0,0,0,.1-.22" transform="translate(-25.35 -12.67)"/><path class="cls-15" d="M50.34,30l4.34,4.36a1.43,1.43,0,0,1-.16.24l-4.35-4.36a1.46,1.46,0,0,0,.17-.24" transform="translate(-25.35 -12.67)"/><path class="cls-4" d="M50.17,30.27l4.35,4.36a1.67,1.67,0,0,1-1.28.61L48.9,30.88a1.61,1.61,0,0,0,1.27-.61" transform="translate(-25.35 -12.67)"/></g></g></g><path class="cls-16" d="M49,12.67a1.68,1.68,0,0,1,1.17.49,1.59,1.59,0,0,1,.46,1.15l-.11,14.92a1.66,1.66,0,0,1-1.65,1.65H27a1.63,1.63,0,0,1-1.63-1.65l.12-14.92a1.66,1.66,0,0,1,1.65-1.64H49Z" transform="translate(-25.35 -12.67)"/></g></g><polygon id="flash" class="cls-17" points="16.64 1.33 7.64 10.33 12.64 10.33 9.64 17.33 18.64 8.33 13.64 8.33 16.64 1.33"/></svg>