<svg id="green" xmlns="http://www.w3.org/2000/svg" xmlns:xlink="http://www.w3.org/1999/xlink" viewBox="0 0 26.83 22.56"><defs><style>.cls-1{fill:none;}.cls-2{isolation:isolate;}.cls-3{clip-path:url(#clip-path);}.cls-4{fill:#127f00;}.cls-5{clip-path:url(#clip-path-2);}.cls-6{fill:#169c00;}.cls-7{fill:#16a100;}.cls-8{fill:#159700;}.cls-9{fill:#117a00;}.cls-10{fill:#159800;}.cls-11{clip-path:url(#clip-path-3);}.cls-12{fill:#149200;}.cls-13{fill:#148e00;}.cls-14{fill:#138900;}.cls-15{fill:#128400;}.cls-16{fill:#1dd200;}</style><clipPath id="clip-path" transform="translate(-26.35 -37.78)"><path class="cls-1" d="M31.16,59.86l-4.34-4.35A1.65,1.65,0,0,0,28,56l4.34,4.36A1.63,1.63,0,0,1,31.16,59.86Z"/></clipPath><clipPath id="clip-path-2" transform="translate(-26.35 -37.78)"><path class="cls-1" d="M48.37,38.26l4.34,4.36a1.62,1.62,0,0,1,.47,1.16l-4.34-4.36A1.67,1.67,0,0,0,48.37,38.26Z"/></clipPath><clipPath id="clip-path-3" transform="translate(-26.35 -37.78)"><path class="cls-1" d="M48.73,54.34l4.34,4.36a1.66,1.66,0,0,1-1.66,1.64L47.07,56A1.66,1.66,0,0,0,48.73,54.34Z"/></clipPath></defs><g id="agv_green"><g class="cls-2"><g class="cls-2"><g class="cls-3"><g class="cls-2"><path class="cls-4" d="M28,56l4.34,4.36a1.63,1.63,0,0,1-1.16-.48l-4.34-4.35A1.65,1.65,0,0,0,28,56" transform="translate(-26.35 -37.78)"/></g></g></g><g class="cls-2"><g class="cls-5"><g class="cls-2"><path class="cls-6" d="M48.37,38.26l4.34,4.36c0,.06.11.12.15.18l-4.34-4.36-.15-.18" transform="translate(-26.35 -37.78)"/><path class="cls-7" d="M48.52,38.44l4.34,4.36a1.41,1.41,0,0,1,.21.38l-4.34-4.36a1.58,1.58,0,0,0-.21-.38" transform="translate(-26.35 -37.78)"/><path class="cls-6" d="M48.73,38.82l4.34,4.36a1.29,1.29,0,0,1,.1.44l-4.34-4.36a1.65,1.65,0,0,0-.1-.44" transform="translate(-26.35 -37.78)"/><path class="cls-8" d="M48.83,39.26l4.34,4.36a.86.86,0,0,1,0,.16l-4.34-4.36a.86.86,0,0,0,0-.16" transform="translate(-26.35 -37.78)"/></g></g></g><polygon class="cls-9" points="20.73 18.2 25.07 22.56 5.97 22.56 1.63 18.2 20.73 18.2"/><polygon class="cls-10" points="22.49 1.64 26.83 6 26.72 20.92 22.38 16.56 22.49 1.64"/><g class="cls-2"><g class="cls-11"><g class="cls-2"><path class="cls-8" d="M48.73,54.34l4.34,4.36a.49.49,0,0,1,0,.12l-4.34-4.36s0-.08,0-.12" transform="translate(-26.35 -37.78)"/><path class="cls-12" d="M48.72,54.46l4.34,4.36a1.6,1.6,0,0,1,0,.23L48.69,54.7a2,2,0,0,0,0-.24" transform="translate(-26.35 -37.78)"/><path class="cls-13" d="M48.69,54.7,53,59.05a1.42,1.42,0,0,1-.07.22l-4.34-4.35c0-.08.05-.15.07-.22" transform="translate(-26.35 -37.78)"/><path class="cls-14" d="M48.62,54.92,53,59.27a1.47,1.47,0,0,1-.1.22l-4.34-4.35a2.14,2.14,0,0,0,.1-.22" transform="translate(-26.35 -37.78)"/><path class="cls-15" d="M48.52,55.14l4.34,4.35a1.43,1.43,0,0,1-.16.24l-4.35-4.36a1.24,1.24,0,0,0,.17-.23" transform="translate(-26.35 -37.78)"/><path class="cls-4" d="M48.35,55.37l4.35,4.36a1.68,1.68,0,0,1-1.29.61L47.07,56a1.61,1.61,0,0,0,1.28-.61" transform="translate(-26.35 -37.78)"/></g></g></g><path class="cls-16" d="M47.21,37.78a1.63,1.63,0,0,1,1.63,1.64l-.11,14.92A1.66,1.66,0,0,1,47.07,56H28a1.62,1.62,0,0,1-1.63-1.64l.11-14.92a1.66,1.66,0,0,1,1.66-1.64Z" transform="translate(-26.35 -37.78)"/></g></g></svg>