<svg id="pink" xmlns="http://www.w3.org/2000/svg" xmlns:xlink="http://www.w3.org/1999/xlink" viewBox="0 0 26.87 22.57"><defs><style>.cls-1{fill:none;}.cls-2{isolation:isolate;}.cls-3{clip-path:url(#clip-path);}.cls-4{fill:#85316a;}.cls-5{clip-path:url(#clip-path-2);}.cls-6{fill:#a33d82;}.cls-7{fill:#a83f86;}.cls-8{fill:#9e3b7e;}.cls-9{fill:#9f3b7f;}.cls-10{fill:#803066;}.cls-11{clip-path:url(#clip-path-3);}.cls-12{fill:#99397a;}.cls-13{fill:#943776;}.cls-14{fill:#8f3572;}.cls-15{fill:#8a336e;}.cls-16{fill:#dc52af;}</style><clipPath id="clip-path" transform="translate(-77.32 -63.19)"><path class="cls-1" d="M82.13,85.28l-4.34-4.36a1.61,1.61,0,0,0,1.15.48l4.34,4.36A1.61,1.61,0,0,1,82.13,85.28Z"/></clipPath><clipPath id="clip-path-2" transform="translate(-77.32 -63.19)"><path class="cls-1" d="M99.37,63.67,103.71,68a1.57,1.57,0,0,1,.47,1.16l-4.34-4.36A1.58,1.58,0,0,0,99.37,63.67Z"/></clipPath><clipPath id="clip-path-3" transform="translate(-77.32 -63.19)"><path class="cls-1" d="M99.73,79.75l4.34,4.36a1.66,1.66,0,0,1-1.65,1.65L98.08,81.4A1.66,1.66,0,0,0,99.73,79.75Z"/></clipPath></defs><g id="agv_pink"><g class="cls-2"><g class="cls-2"><g class="cls-3"><g class="cls-2"><path class="cls-4" d="M78.94,81.4l4.34,4.36a1.61,1.61,0,0,1-1.15-.48l-4.34-4.36a1.61,1.61,0,0,0,1.15.48" transform="translate(-77.32 -63.19)"/></g></g></g><g class="cls-2"><g class="cls-5"><g class="cls-2"><path class="cls-6" d="M99.37,63.67,103.71,68a.93.93,0,0,1,.16.18l-4.34-4.36-.16-.18" transform="translate(-77.32 -63.19)"/><path class="cls-7" d="M99.53,63.85l4.34,4.36a1.52,1.52,0,0,1,.2.38l-4.34-4.36a1.72,1.72,0,0,0-.2-.38" transform="translate(-77.32 -63.19)"/><path class="cls-6" d="M99.73,64.23l4.34,4.36a1.51,1.51,0,0,1,.11.43l-4.34-4.35a1.58,1.58,0,0,0-.11-.44" transform="translate(-77.32 -63.19)"/><path class="cls-8" d="M99.84,64.67,104.18,69a1,1,0,0,1,0,.17l-4.34-4.36v-.16" transform="translate(-77.32 -63.19)"/></g></g></g><polygon class="cls-9" points="22.53 1.64 26.87 6 26.76 20.92 22.41 16.56 22.53 1.64"/><polygon class="cls-10" points="20.76 18.21 25.1 22.57 5.97 22.57 1.63 18.21 20.76 18.21"/><g class="cls-2"><g class="cls-11"><g class="cls-2"><path class="cls-8" d="M99.73,79.75l4.34,4.36v.12l-4.35-4.36a.49.49,0,0,0,0-.12" transform="translate(-77.32 -63.19)"/><path class="cls-12" d="M99.72,79.87l4.35,4.36a2,2,0,0,1,0,.24l-4.34-4.36a1,1,0,0,0,0-.24" transform="translate(-77.32 -63.19)"/><path class="cls-13" d="M99.69,80.11,104,84.47a1.87,1.87,0,0,1-.07.22l-4.34-4.36a1.87,1.87,0,0,0,.07-.22" transform="translate(-77.32 -63.19)"/><path class="cls-14" d="M99.62,80.33,104,84.69a1.47,1.47,0,0,1-.1.22l-4.34-4.36a1.47,1.47,0,0,0,.1-.22" transform="translate(-77.32 -63.19)"/><path class="cls-15" d="M99.52,80.55l4.34,4.36-.16.24-4.34-4.36a1.43,1.43,0,0,0,.16-.24" transform="translate(-77.32 -63.19)"/><path class="cls-4" d="M99.36,80.79l4.34,4.36a1.67,1.67,0,0,1-1.28.61L98.08,81.4a1.67,1.67,0,0,0,1.28-.61" transform="translate(-77.32 -63.19)"/></g></g></g><path class="cls-16" d="M98.22,63.19a1.62,1.62,0,0,1,1.62,1.64l-.11,14.92a1.66,1.66,0,0,1-1.65,1.65H78.94a1.62,1.62,0,0,1-1.62-1.65l.11-14.92a1.66,1.66,0,0,1,1.65-1.64Z" transform="translate(-77.32 -63.19)"/></g></g></svg>