<svg id="charge" xmlns="http://www.w3.org/2000/svg" xmlns:xlink="http://www.w3.org/1999/xlink" viewBox="0 0 26.83 22.57"><defs><style>.cls-1{fill:none;}.cls-2{isolation:isolate;}.cls-3{clip-path:url(#clip-path);}.cls-4{fill:#853000;}.cls-5{clip-path:url(#clip-path-2);}.cls-6{fill:#a33c00;}.cls-7{fill:#a83d00;}.cls-8{fill:#9e3a00;}.cls-9{fill:#9f3a00;}.cls-10{fill:#802f00;}.cls-11{clip-path:url(#clip-path-3);}.cls-12{fill:#993800;}.cls-13{fill:#943600;}.cls-14{fill:#8f3400;}.cls-15{fill:#8a3200;}.cls-16{fill:#dc5000;}.cls-17{fill:#1f1fff;}</style><clipPath id="clip-path" transform="translate(-25.35 -12.67)"><path class="cls-1" d="M30.18,34.83l-4.35-4.36a1.34,1.34,0,0,0,1,.41l4.34,4.36A1.3,1.3,0,0,1,30.18,34.83Z"/></clipPath><clipPath id="clip-path-2" transform="translate(-25.35 -12.67)"><path class="cls-1" d="M47.36,13.09l4.35,4.36.06.07a1.67,1.67,0,0,1,.41,1.15l-4.34-4.36a1.74,1.74,0,0,0-.41-1.15A.23.23,0,0,0,47.36,13.09Z"/></clipPath><clipPath id="clip-path-3" transform="translate(-25.35 -12.67)"><path class="cls-1" d="M47.73,29.23l4.34,4.36a1.58,1.58,0,0,1-1.47,1.65l-4.35-4.36A1.58,1.58,0,0,0,47.73,29.23Z"/></clipPath></defs><g id="agv_orange"><g class="cls-2"><g class="cls-2"><g class="cls-3"><g class="cls-2"><path class="cls-4" d="M26.79,30.88l4.34,4.36a1.3,1.3,0,0,1-.95-.41l-4.35-4.36a1.34,1.34,0,0,0,1,.41" transform="translate(-25.35 -12.67)"/></g></g></g><g class="cls-2"><g class="cls-5"><g class="cls-2"><path class="cls-6" d="M47.36,13.09l4.35,4.36.06.07.08.09L47.5,13.25l-.07-.09a.23.23,0,0,0-.07-.07" transform="translate(-25.35 -12.67)"/><path class="cls-7" d="M47.5,13.25l4.35,4.36a1.69,1.69,0,0,1,.21.4l-4.34-4.36a1.41,1.41,0,0,0-.22-.4" transform="translate(-25.35 -12.67)"/><path class="cls-6" d="M47.72,13.65,52.06,18a1.88,1.88,0,0,1,.12.48l-4.35-4.36a1.53,1.53,0,0,0-.11-.48" transform="translate(-25.35 -12.67)"/><path class="cls-8" d="M47.83,14.13l4.35,4.36v.18l-4.34-4.36a1.09,1.09,0,0,0,0-.18" transform="translate(-25.35 -12.67)"/></g></g></g><polygon class="cls-9" points="22.49 1.64 26.83 6 26.72 20.92 22.38 16.56 22.49 1.64"/><polygon class="cls-10" points="20.91 18.21 25.25 22.57 5.78 22.57 1.44 18.21 20.91 18.21"/><g class="cls-2"><g class="cls-11"><g class="cls-2"><path class="cls-8" d="M47.73,29.23l4.34,4.36a.53.53,0,0,1,0,.13l-4.34-4.35a.66.66,0,0,0,0-.14" transform="translate(-25.35 -12.67)"/><path class="cls-12" d="M47.72,29.37l4.34,4.35A1.26,1.26,0,0,1,52,34l-4.34-4.36a1.09,1.09,0,0,0,0-.26" transform="translate(-25.35 -12.67)"/><path class="cls-13" d="M47.68,29.63,52,34a2.17,2.17,0,0,1-.07.24l-4.34-4.36a1.37,1.37,0,0,0,.07-.24" transform="translate(-25.35 -12.67)"/><path class="cls-14" d="M47.61,29.87,52,34.23a1.63,1.63,0,0,1-.11.23L47.5,30.11a2.56,2.56,0,0,0,.11-.24" transform="translate(-25.35 -12.67)"/><path class="cls-15" d="M47.5,30.11l4.34,4.35a1.43,1.43,0,0,1-.16.24l-4.34-4.35.16-.24" transform="translate(-25.35 -12.67)"/><path class="cls-4" d="M47.34,30.35l4.34,4.35a1.41,1.41,0,0,1-1.08.54l-4.35-4.36a1.4,1.4,0,0,0,1.09-.53" transform="translate(-25.35 -12.67)"/></g></g></g><path class="cls-16" d="M46.39,12.67a1.39,1.39,0,0,1,1,.49,1.74,1.74,0,0,1,.41,1.15l-.11,14.92a1.58,1.58,0,0,1-1.48,1.65H26.79a1.54,1.54,0,0,1-1.44-1.65l.11-14.92a1.58,1.58,0,0,1,1.47-1.64H46.39Z" transform="translate(-25.35 -12.67)"/></g></g><polygon id="flash" class="cls-17" points="14.65 1.33 5.65 10.33 10.65 10.33 7.65 17.33 16.65 8.33 11.65 8.33 14.65 1.33"/></svg>