<svg id="gray" xmlns="http://www.w3.org/2000/svg" xmlns:xlink="http://www.w3.org/1999/xlink" viewBox="0 0 26.84 22.56"><defs><style>.cls-1{fill:none;}.cls-2{isolation:isolate;}.cls-3{clip-path:url(#clip-path);}.cls-4{fill:#858585;}.cls-5{clip-path:url(#clip-path-2);}.cls-6{fill:#a3a3a3;}.cls-7{fill:#a8a8a8;}.cls-8{fill:#9e9e9e;}.cls-9{fill:gray;}.cls-10{fill:#9f9f9f;}.cls-11{clip-path:url(#clip-path-3);}.cls-12{fill:#999;}.cls-13{fill:#949494;}.cls-14{fill:#8f8f8f;}.cls-15{fill:#8a8a8a;}.cls-16{fill:#dcdcdc;}</style><clipPath id="clip-path" transform="translate(-26.34 -91.79)"><path class="cls-1" d="M31.16,113.87l-4.34-4.36A1.62,1.62,0,0,0,28,110l4.34,4.36A1.62,1.62,0,0,1,31.16,113.87Z"/></clipPath><clipPath id="clip-path-2" transform="translate(-26.34 -91.79)"><path class="cls-1" d="M48.37,92.27l4.34,4.36a1.58,1.58,0,0,1,.47,1.16l-4.34-4.36A1.58,1.58,0,0,0,48.37,92.27Z"/></clipPath><clipPath id="clip-path-3" transform="translate(-26.34 -91.79)"><path class="cls-1" d="M48.73,108.35l4.34,4.36a1.66,1.66,0,0,1-1.65,1.64L47.08,110A1.66,1.66,0,0,0,48.73,108.35Z"/></clipPath></defs><g id="agv_gray"><g class="cls-2"><g class="cls-2"><g class="cls-3"><g class="cls-2"><path class="cls-4" d="M28,110l4.34,4.36a1.62,1.62,0,0,1-1.16-.48l-4.34-4.36A1.62,1.62,0,0,0,28,110" transform="translate(-26.34 -91.79)"/></g></g></g><g class="cls-2"><g class="cls-5"><g class="cls-2"><path class="cls-6" d="M48.37,92.27l4.34,4.36a1.37,1.37,0,0,1,.16.18l-4.34-4.36-.16-.18" transform="translate(-26.34 -91.79)"/><path class="cls-7" d="M48.53,92.45l4.34,4.36a1.52,1.52,0,0,1,.2.38l-4.34-4.36a1.72,1.72,0,0,0-.2-.38" transform="translate(-26.34 -91.79)"/><path class="cls-6" d="M48.73,92.83l4.34,4.36a1.51,1.51,0,0,1,.11.43l-4.34-4.35a1.58,1.58,0,0,0-.11-.44" transform="translate(-26.34 -91.79)"/><path class="cls-8" d="M48.84,93.27l4.34,4.35a1,1,0,0,1,0,.17l-4.34-4.36v-.16" transform="translate(-26.34 -91.79)"/></g></g></g><polygon class="cls-9" points="20.73 18.2 25.07 22.56 5.98 22.56 1.64 18.2 20.73 18.2"/><polygon class="cls-10" points="22.5 1.64 26.84 6 26.73 20.92 22.39 16.56 22.5 1.64"/><g class="cls-2"><g class="cls-11"><g class="cls-2"><path class="cls-8" d="M48.73,108.35l4.34,4.36v.11l-4.35-4.35a.49.49,0,0,0,0-.12" transform="translate(-26.34 -91.79)"/><path class="cls-12" d="M48.72,108.47l4.35,4.35a1.72,1.72,0,0,1,0,.24l-4.34-4.36a.85.85,0,0,0,0-.23" transform="translate(-26.34 -91.79)"/><path class="cls-13" d="M48.69,108.7,53,113.06a1.42,1.42,0,0,1-.07.22l-4.34-4.36a1.42,1.42,0,0,0,.07-.22" transform="translate(-26.34 -91.79)"/><path class="cls-14" d="M48.62,108.92,53,113.28a1.47,1.47,0,0,1-.1.22l-4.34-4.36a1.47,1.47,0,0,0,.1-.22" transform="translate(-26.34 -91.79)"/><path class="cls-15" d="M48.52,109.14l4.34,4.36a1.43,1.43,0,0,1-.16.24l-4.34-4.36a1.43,1.43,0,0,0,.16-.24" transform="translate(-26.34 -91.79)"/><path class="cls-4" d="M48.36,109.38l4.34,4.36a1.66,1.66,0,0,1-1.28.61L47.08,110a1.67,1.67,0,0,0,1.28-.61" transform="translate(-26.34 -91.79)"/></g></g></g><path class="cls-16" d="M47.22,91.79a1.62,1.62,0,0,1,1.62,1.64l-.11,14.92A1.66,1.66,0,0,1,47.08,110H28a1.63,1.63,0,0,1-1.64-1.64l.12-14.92a1.66,1.66,0,0,1,1.66-1.64Z" transform="translate(-26.34 -91.79)"/></g></g></svg>