<svg id="blue" xmlns="http://www.w3.org/2000/svg" xmlns:xlink="http://www.w3.org/1999/xlink" viewBox="0 0 26.83 22.56"><defs><style>.cls-1{fill:none;}.cls-2{isolation:isolate;}.cls-3{clip-path:url(#clip-path);}.cls-4{fill:#052985;}.cls-5{clip-path:url(#clip-path-2);}.cls-6{fill:#0633a3;}.cls-7{fill:#0734a8;}.cls-8{fill:#06319e;}.cls-9{fill:#052880;}.cls-10{fill:#06319f;}.cls-11{clip-path:url(#clip-path-3);}.cls-12{fill:#062f99;}.cls-13{fill:#062e94;}.cls-14{fill:#062c8f;}.cls-15{fill:#052b8a;}.cls-16{fill:#0944dc;}</style><clipPath id="clip-path" transform="translate(-26.35 -62.89)"><path class="cls-1" d="M31.16,85l-4.34-4.35a1.65,1.65,0,0,0,1.16.47l4.34,4.36A1.63,1.63,0,0,1,31.16,85Z"/></clipPath><clipPath id="clip-path-2" transform="translate(-26.35 -62.89)"><path class="cls-1" d="M48.37,63.37l4.34,4.36a1.62,1.62,0,0,1,.47,1.16l-4.34-4.36A1.67,1.67,0,0,0,48.37,63.37Z"/></clipPath><clipPath id="clip-path-3" transform="translate(-26.35 -62.89)"><path class="cls-1" d="M48.73,79.45l4.34,4.36a1.66,1.66,0,0,1-1.66,1.64l-4.34-4.36A1.66,1.66,0,0,0,48.73,79.45Z"/></clipPath></defs><g id="agv_blue"><g class="cls-2"><g class="cls-2"><g class="cls-3"><g class="cls-2"><path class="cls-4" d="M28,81.09l4.34,4.36A1.63,1.63,0,0,1,31.16,85l-4.34-4.35a1.65,1.65,0,0,0,1.16.47" transform="translate(-26.35 -62.89)"/></g></g></g><g class="cls-2"><g class="cls-5"><g class="cls-2"><path class="cls-6" d="M48.37,63.37l4.34,4.36c0,.06.11.12.15.18l-4.34-4.36-.15-.18" transform="translate(-26.35 -62.89)"/><path class="cls-7" d="M48.52,63.55l4.34,4.36a1.41,1.41,0,0,1,.21.38l-4.34-4.36a1.58,1.58,0,0,0-.21-.38" transform="translate(-26.35 -62.89)"/><path class="cls-6" d="M48.73,63.93l4.34,4.36a1.29,1.29,0,0,1,.1.44l-4.34-4.36a1.65,1.65,0,0,0-.1-.44" transform="translate(-26.35 -62.89)"/><path class="cls-8" d="M48.83,64.37l4.34,4.36a.86.86,0,0,1,0,.16l-4.34-4.36a.86.86,0,0,0,0-.16" transform="translate(-26.35 -62.89)"/></g></g></g><polygon class="cls-9" points="20.73 18.2 25.07 22.56 5.97 22.56 1.63 18.2 20.73 18.2"/><polygon class="cls-10" points="22.49 1.64 26.83 6 26.72 20.92 22.38 16.56 22.49 1.64"/><g class="cls-2"><g class="cls-11"><g class="cls-2"><path class="cls-8" d="M48.73,79.45l4.34,4.36a.49.49,0,0,1,0,.12l-4.34-4.36s0-.08,0-.12" transform="translate(-26.35 -62.89)"/><path class="cls-12" d="M48.72,79.57l4.34,4.36a1.6,1.6,0,0,1,0,.23l-4.34-4.35a2,2,0,0,0,0-.24" transform="translate(-26.35 -62.89)"/><path class="cls-13" d="M48.69,79.81,53,84.16a1.42,1.42,0,0,1-.07.22L48.62,80c0-.08.05-.15.07-.22" transform="translate(-26.35 -62.89)"/><path class="cls-14" d="M48.62,80,53,84.38a1.47,1.47,0,0,1-.1.22l-4.34-4.35a2.14,2.14,0,0,0,.1-.22" transform="translate(-26.35 -62.89)"/><path class="cls-15" d="M48.52,80.25l4.34,4.35a1.43,1.43,0,0,1-.16.24l-4.35-4.36a1.24,1.24,0,0,0,.17-.23" transform="translate(-26.35 -62.89)"/><path class="cls-4" d="M48.35,80.48l4.35,4.36a1.68,1.68,0,0,1-1.29.61l-4.34-4.36a1.61,1.61,0,0,0,1.28-.61" transform="translate(-26.35 -62.89)"/></g></g></g><path class="cls-16" d="M47.21,62.89a1.63,1.63,0,0,1,1.63,1.64l-.11,14.92a1.66,1.66,0,0,1-1.66,1.64H28a1.62,1.62,0,0,1-1.63-1.64l.11-14.92a1.66,1.66,0,0,1,1.66-1.64Z" transform="translate(-26.35 -62.89)"/></g></g></svg>