<?xml version="1.0" encoding="UTF-8"?>
<svg id="_图层_2" data-name="图层 2" xmlns="http://www.w3.org/2000/svg" viewBox="0 0 6700 930">
  <defs>
    <style>
      .cls-1 {
        fill: #14d8dc;
      }

      .cls-2 {
        isolation: isolate;
      }

      .cls-3 {
        fill: #0e9d9f;
      }

      .cls-4 {
        fill: #0e9b9e;
      }

      .cls-5 {
        fill: #0c7e80;
      }

      .cls-6 {
        fill: #0e9da0;
      }
    </style>
  </defs>
  <g class="cls-2">
    <polygon class="cls-3" points="237.81 435.69 242.16 440.05 241.97 463.84 237.63 459.48 237.81 435.69"/>
    <polygon class="cls-5" points="237.63 459.48 241.97 463.84 182.33 463.84 177.99 459.48 237.63 459.48"/>
    <polygon class="cls-1" points="237.81 435.69 237.63 459.48 177.99 459.48 178.17 435.69 237.81 435.69"/>
  </g>
  <g class="cls-2">
    <polygon class="cls-3" points="237.81 398.29 242.16 402.65 241.97 426.43 237.63 422.07 237.81 398.29"/>
    <polygon class="cls-5" points="237.63 422.07 241.97 426.43 182.33 426.43 177.99 422.07 237.63 422.07"/>
    <polygon class="cls-1" points="237.81 398.29 237.63 422.07 177.99 422.07 178.17 398.29 237.81 398.29"/>
  </g>
  <g class="cls-2">
    <polygon class="cls-3" points="159.72 398.36 164.06 402.72 163.6 463.77 159.26 459.41 159.72 398.36"/>
    <polygon class="cls-5" points="159.26 459.41 163.6 463.77 10.7 463.77 6.36 459.41 159.26 459.41"/>
    <polygon class="cls-1" points="159.72 398.36 159.26 459.41 6.36 459.41 6.83 398.36 159.72 398.36"/>
  </g>
  <g class="cls-2">
    <polygon class="cls-3" points="237.81 333.52 242.16 337.88 241.97 361.66 237.63 357.3 237.81 333.52"/>
    <polygon class="cls-5" points="237.63 357.3 241.97 361.66 182.33 361.66 177.99 357.3 237.63 357.3"/>
    <polygon class="cls-1" points="237.81 333.52 237.63 357.3 177.99 357.3 178.17 333.52 237.81 333.52"/>
  </g>
  <g class="cls-2">
    <polygon class="cls-3" points="237.81 296.1 242.16 300.46 241.97 324.25 237.63 319.89 237.81 296.1"/>
    <polygon class="cls-5" points="237.63 319.89 241.97 324.25 182.33 324.25 177.99 319.89 237.63 319.89"/>
    <polygon class="cls-1" points="237.81 296.1 237.63 319.89 177.99 319.89 178.17 296.1 237.81 296.1"/>
  </g>
  <g class="cls-2">
    <polygon class="cls-3" points="159.72 296.18 164.06 300.53 163.6 361.59 159.26 357.23 159.72 296.18"/>
    <polygon class="cls-5" points="159.26 357.23 163.6 361.59 10.7 361.59 6.36 357.23 159.26 357.23"/>
    <polygon class="cls-1" points="159.72 296.18 159.26 357.23 6.36 357.23 6.83 296.18 159.72 296.18"/>
  </g>
  <g class="cls-2">
    <polygon class="cls-3" points="237.81 231.94 242.16 236.3 241.97 260.09 237.63 255.73 237.81 231.94"/>
    <polygon class="cls-5" points="237.63 255.73 241.97 260.09 182.33 260.09 177.99 255.73 237.63 255.73"/>
    <polygon class="cls-1" points="237.81 231.94 237.63 255.73 177.99 255.73 178.17 231.94 237.81 231.94"/>
  </g>
  <g class="cls-2">
    <polygon class="cls-3" points="237.81 194.54 242.16 198.9 241.97 222.67 237.63 218.32 237.81 194.54"/>
    <polygon class="cls-5" points="237.63 218.32 241.97 222.67 182.33 222.67 177.99 218.32 237.63 218.32"/>
    <polygon class="cls-1" points="237.81 194.54 237.63 218.32 177.99 218.32 178.17 194.54 237.81 194.54"/>
  </g>
  <g class="cls-2">
    <polygon class="cls-3" points="159.72 194.61 164.06 198.97 163.6 260.02 159.26 255.66 159.72 194.61"/>
    <polygon class="cls-5" points="159.26 255.66 163.6 260.02 10.7 260.02 6.36 255.66 159.26 255.66"/>
    <polygon class="cls-1" points="159.72 194.61 159.26 255.66 6.36 255.66 6.83 194.61 159.72 194.61"/>
  </g>
  <g class="cls-2">
    <polygon class="cls-3" points="237.81 129.77 242.16 134.12 241.97 157.91 237.63 153.55 237.81 129.77"/>
    <polygon class="cls-5" points="237.63 153.55 241.97 157.91 182.33 157.91 177.99 153.55 237.63 153.55"/>
    <polygon class="cls-1" points="237.81 129.77 237.63 153.55 177.99 153.55 178.17 129.77 237.81 129.77"/>
  </g>
  <g class="cls-2">
    <polygon class="cls-3" points="237.81 92.35 242.16 96.71 241.97 120.5 237.63 116.14 237.81 92.35"/>
    <polygon class="cls-5" points="237.63 116.14 241.97 120.5 182.33 120.5 177.99 116.14 237.63 116.14"/>
    <polygon class="cls-1" points="237.81 92.35 237.63 116.14 177.99 116.14 178.17 92.35 237.81 92.35"/>
  </g>
  <g class="cls-2">
    <polygon class="cls-3" points="159.72 92.42 164.06 96.78 163.6 157.84 159.26 153.48 159.72 92.42"/>
    <polygon class="cls-5" points="159.26 153.48 163.6 157.84 10.7 157.84 6.36 153.48 159.26 153.48"/>
    <polygon class="cls-1" points="159.72 92.42 159.26 153.48 6.36 153.48 6.83 92.42 159.72 92.42"/>
  </g>
  <g class="cls-2">
    <polygon class="cls-3" points="693.52 496.94 697.86 501.3 697.45 555.23 693.11 550.87 693.52 496.94"/>
    <polygon class="cls-5" points="693.11 550.87 697.45 555.23 422.18 555.23 417.84 550.87 693.11 550.87"/>
    <polygon class="cls-1" points="693.52 496.94 693.11 550.87 417.84 550.87 418.25 496.94 693.52 496.94"/>
  </g>
  <g class="cls-2">
    <polygon class="cls-3" points="693.52 418.13 697.86 422.49 697.45 476.42 693.11 472.06 693.52 418.13"/>
    <polygon class="cls-5" points="693.11 472.06 697.45 476.42 422.18 476.42 417.84 472.06 693.11 472.06"/>
    <polygon class="cls-1" points="693.52 418.13 693.11 472.06 417.84 472.06 418.25 418.13 693.52 418.13"/>
  </g>
  <g class="cls-2">
    <polygon class="cls-3" points="692.27 332.38 696.61 336.74 696.2 390.66 691.86 386.31 692.27 332.38"/>
    <polygon class="cls-5" points="691.86 386.31 696.2 390.66 420.93 390.66 416.59 386.31 691.86 386.31"/>
    <polygon class="cls-1" points="692.27 332.38 691.86 386.31 416.59 386.31 417 332.38 692.27 332.38"/>
  </g>
  <g class="cls-2">
    <polygon class="cls-3" points="692.27 253.57 696.61 257.92 696.2 311.85 691.86 307.49 692.27 253.57"/>
    <polygon class="cls-5" points="691.86 307.49 696.2 311.85 420.93 311.85 416.59 307.49 691.86 307.49"/>
    <polygon class="cls-1" points="692.27 253.57 691.86 307.49 416.59 307.49 417 253.57 692.27 253.57"/>
  </g>
  <g class="cls-2">
    <polygon class="cls-3" points="693.52 167.53 697.86 171.88 697.45 225.81 693.11 221.45 693.52 167.53"/>
    <polygon class="cls-5" points="693.11 221.45 697.45 225.81 422.18 225.81 417.84 221.45 693.11 221.45"/>
    <polygon class="cls-1" points="693.52 167.53 693.11 221.45 417.84 221.45 418.25 167.53 693.52 167.53"/>
  </g>
  <g class="cls-2">
    <polygon class="cls-3" points="1025.82 435.81 1030.16 440.16 1029.75 494.09 1025.41 489.74 1025.82 435.81"/>
    <polygon class="cls-5" points="1025.41 489.74 1029.75 494.09 754.48 494.09 750.14 489.74 1025.41 489.74"/>
    <polygon class="cls-1" points="1025.82 435.81 1025.41 489.74 750.14 489.74 750.55 435.81 1025.82 435.81"/>
  </g>
  <g class="cls-2">
    <polygon class="cls-3" points="1025.82 350.99 1030.16 355.35 1029.75 409.28 1025.41 404.92 1025.82 350.99"/>
    <polygon class="cls-5" points="1025.41 404.92 1029.75 409.28 754.48 409.28 750.14 404.92 1025.41 404.92"/>
    <polygon class="cls-1" points="1025.82 350.99 1025.41 404.92 750.14 404.92 750.55 350.99 1025.82 350.99"/>
  </g>
  <g class="cls-2">
    <polygon class="cls-3" points="1024.57 269.24 1028.91 273.6 1028.5 327.53 1024.16 323.17 1024.57 269.24"/>
    <polygon class="cls-5" points="1024.16 323.17 1028.5 327.53 753.23 327.53 748.89 323.17 1024.16 323.17"/>
    <polygon class="cls-1" points="1024.57 269.24 1024.16 323.17 748.89 323.17 749.3 269.24 1024.57 269.24"/>
  </g>
  <g class="cls-2">
    <polygon class="cls-3" points="1024.57 184.43 1028.91 188.78 1028.5 242.71 1024.16 238.36 1024.57 184.43"/>
    <polygon class="cls-5" points="1024.16 238.36 1028.5 242.71 753.23 242.71 748.89 238.36 1024.16 238.36"/>
    <polygon class="cls-1" points="1024.57 184.43 1024.16 238.36 748.89 238.36 749.3 184.43 1024.57 184.43"/>
  </g>
  <g class="cls-2">
    <polygon class="cls-3" points="1025.82 111.38 1030.16 115.74 1029.75 169.68 1025.41 165.32 1025.82 111.38"/>
    <polygon class="cls-5" points="1025.41 165.32 1029.75 169.68 754.48 169.68 750.14 165.32 1025.41 165.32"/>
    <polygon class="cls-1" points="1025.82 111.38 1025.41 165.32 750.14 165.32 750.55 111.38 1025.82 111.38"/>
  </g>
  <g class="cls-2">
    <polygon class="cls-3" points="1024.57 514.03 1028.91 518.39 1028.5 572.32 1024.16 567.96 1024.57 514.03"/>
    <polygon class="cls-5" points="1024.16 567.96 1028.5 572.32 753.23 572.32 748.89 567.96 1024.16 567.96"/>
    <polygon class="cls-1" points="1024.57 514.03 1024.16 567.96 748.89 567.96 749.3 514.03 1024.57 514.03"/>
  </g>
  <g class="cls-2">
    <polygon class="cls-3" points="2972.09 555.15 2976.43 559.51 2976.38 565.79 2972.04 561.44 2972.09 555.15"/>
    <polygon class="cls-5" points="2972.04 561.44 2976.38 565.79 2956.24 565.79 2951.9 561.44 2972.04 561.44"/>
    <polygon class="cls-3" points="2951.9 561.44 2956.24 565.79 2955.84 618.4 2951.5 614.04 2951.9 561.44"/>
    <polygon class="cls-3" points="2971.64 614.04 2975.98 618.4 2975.92 625.69 2971.58 621.34 2971.64 614.04"/>
    <polygon class="cls-5" points="2971.58 621.34 2975.92 625.69 2719.47 625.69 2715.13 621.34 2971.58 621.34"/>
    <polygon class="cls-1" points="2972.09 555.15 2972.04 561.44 2951.9 561.44 2951.5 614.04 2971.64 614.04 2971.58 621.34 2715.13 621.34 2715.63 555.15 2972.09 555.15"/>
  </g>
  <g class="cls-2">
    <polygon class="cls-3" points="2976.49 437.94 2980.83 442.29 2980.78 448.59 2976.44 444.23 2976.49 437.94"/>
    <polygon class="cls-5" points="2976.44 444.23 2980.78 448.59 2960.65 448.59 2956.3 444.23 2976.44 444.23"/>
    <polygon class="cls-3" points="2956.3 444.23 2960.65 448.59 2960.24 501.19 2955.9 496.83 2956.3 444.23"/>
    <polygon class="cls-3" points="2976.04 496.83 2980.38 501.19 2980.33 508.49 2975.98 504.13 2976.04 496.83"/>
    <polygon class="cls-5" points="2975.98 504.13 2980.33 508.49 2723.87 508.49 2719.53 504.13 2975.98 504.13"/>
    <polygon class="cls-1" points="2976.49 437.94 2976.44 444.23 2956.3 444.23 2955.9 496.83 2976.04 496.83 2975.98 504.13 2719.53 504.13 2720.03 437.94 2976.49 437.94"/>
  </g>
  <g class="cls-2">
    <polygon class="cls-3" points="3859.27 218.73 3863.61 223.09 3863.59 226.49 3859.25 222.13 3859.27 218.73"/>
    <polygon class="cls-5" points="3794.42 307.07 3798.76 311.43 3741.01 311.43 3736.67 307.07 3794.42 307.07"/>
    <polygon class="cls-6" points="4029.9 269.7 4034.24 274.05 4034.44 297.09 4030.1 292.73 4029.9 269.7"/>
    <polygon class="cls-5" points="4061.23 269.32 4065.57 273.68 4034.24 274.05 4029.9 269.7 4061.23 269.32"/>
    <polygon class="cls-3" points="4061.57 224.4 4065.91 228.76 4065.57 273.68 4061.23 269.32 4061.57 224.4"/>
    <polygon class="cls-5" points="4058.48 333.5 4062.82 337.85 3798.56 337.85 3794.22 333.5 4058.48 333.5"/>
    <polygon class="cls-3" points="4058.79 292.73 4063.13 297.09 4062.82 337.85 4058.48 333.5 4058.79 292.73"/>
    <polygon class="cls-1" points="3859.27 218.73 3859.25 222.13 4061.57 224.4 4061.23 269.32 4029.9 269.7 4030.1 292.73 4058.79 292.73 4058.48 333.5 3794.22 333.5 3794.42 307.07 3736.67 307.07 3737.14 244.78 3794.9 244.78 3795.1 218.73 3859.27 218.73"/>
  </g>
  <g class="cls-2">
    <polygon class="cls-3" points="3856.19 368.61 3860.53 372.97 3860.5 376.37 3856.16 372.01 3856.19 368.61"/>
    <polygon class="cls-5" points="3791.34 456.94 3795.68 461.3 3737.92 461.3 3733.58 456.94 3791.34 456.94"/>
    <polygon class="cls-6" points="4026.81 419.57 4031.15 423.93 4031.35 446.95 4027.01 442.6 4026.81 419.57"/>
    <polygon class="cls-5" points="4058.15 419.2 4062.49 423.55 4031.15 423.93 4026.81 419.57 4058.15 419.2"/>
    <polygon class="cls-3" points="4058.49 374.27 4062.83 378.63 4062.49 423.55 4058.15 419.2 4058.49 374.27"/>
    <polygon class="cls-5" points="4055.39 483.37 4059.73 487.73 3795.48 487.73 3791.13 483.37 4055.39 483.37"/>
    <polygon class="cls-3" points="4055.7 442.6 4060.04 446.95 4059.73 487.73 4055.39 483.37 4055.7 442.6"/>
    <polygon class="cls-1" points="3856.19 368.61 3856.16 372.01 4058.49 374.27 4058.15 419.2 4026.81 419.57 4027.01 442.6 4055.7 442.6 4055.39 483.37 3791.13 483.37 3791.34 456.94 3733.58 456.94 3734.05 394.66 3791.81 394.66 3792.01 368.61 3856.19 368.61"/>
  </g>
  <g class="cls-2">
    <polygon class="cls-3" points="3854.16 519.81 3858.5 524.17 3858.48 527.57 3854.13 523.21 3854.16 519.81"/>
    <polygon class="cls-5" points="3789.31 608.14 3793.65 612.5 3735.89 612.5 3731.55 608.14 3789.31 608.14"/>
    <polygon class="cls-6" points="4024.78 570.77 4029.12 575.13 4029.32 598.15 4024.98 593.8 4024.78 570.77"/>
    <polygon class="cls-5" points="4056.11 570.4 4060.46 574.75 4029.12 575.13 4024.78 570.77 4056.11 570.4"/>
    <polygon class="cls-3" points="4056.46 525.47 4060.8 529.83 4060.46 574.75 4056.11 570.4 4056.46 525.47"/>
    <polygon class="cls-5" points="4053.36 634.57 4057.7 638.93 3793.45 638.93 3789.11 634.57 4053.36 634.57"/>
    <polygon class="cls-3" points="4053.67 593.8 4058.01 598.15 4057.7 638.93 4053.36 634.57 4053.67 593.8"/>
    <polygon class="cls-1" points="3854.16 519.81 3854.13 523.21 4056.46 525.47 4056.11 570.4 4024.78 570.77 4024.98 593.8 4053.67 593.8 4053.36 634.57 3789.11 634.57 3789.31 608.14 3731.55 608.14 3732.03 545.86 3789.79 545.86 3789.98 519.81 3854.16 519.81"/>
  </g>
  <g class="cls-2">
    <polygon class="cls-5" points="3682.75 265.91 3687.09 270.27 3681.44 270.27 3677.1 265.91 3682.75 265.91"/>
    <polygon class="cls-5" points="3733.42 305.55 3737.76 309.91 3681.13 309.91 3676.79 305.55 3733.42 305.55"/>
    <polygon class="cls-3" points="3733.9 242.14 3738.25 246.49 3737.76 309.91 3733.42 305.55 3733.9 242.14"/>
    <polygon class="cls-1" points="3733.9 242.14 3733.42 305.55 3676.79 305.55 3676.97 281.77 3682.63 281.77 3682.75 265.91 3677.1 265.91 3677.28 242.14 3733.9 242.14"/>
  </g>
  <g class="cls-2">
    <polygon class="cls-5" points="3680.15 416.41 3684.49 420.77 3678.84 420.77 3674.49 416.41 3680.15 416.41"/>
    <polygon class="cls-5" points="3730.82 456.05 3735.16 460.41 3678.53 460.41 3674.19 456.05 3730.82 456.05"/>
    <polygon class="cls-3" points="3731.3 392.62 3735.64 396.98 3735.16 460.41 3730.82 456.05 3731.3 392.62"/>
    <polygon class="cls-1" points="3731.3 392.62 3730.82 456.05 3674.19 456.05 3674.37 432.26 3680.03 432.26 3680.15 416.41 3674.49 416.41 3674.68 392.62 3731.3 392.62"/>
  </g>
  <g class="cls-2">
    <polygon class="cls-5" points="3676.7 566.48 3681.04 570.83 3675.37 570.83 3671.03 566.48 3676.7 566.48"/>
    <polygon class="cls-5" points="3727.35 606.11 3731.7 610.47 3675.07 610.47 3670.73 606.11 3727.35 606.11"/>
    <polygon class="cls-3" points="3727.84 542.69 3732.18 547.05 3731.7 610.47 3727.35 606.11 3727.84 542.69"/>
    <polygon class="cls-1" points="3727.84 542.69 3727.35 606.11 3670.73 606.11 3670.91 582.33 3676.57 582.33 3676.7 566.48 3671.03 566.48 3671.21 542.69 3727.84 542.69"/>
  </g>
  <g class="cls-2">
    <polygon class="cls-3" points="4378.83 315.66 4383.17 320.02 4383.08 332.1 4378.74 327.74 4378.83 315.66"/>
    <polygon class="cls-3" points="4488.97 327.74 4493.31 332.1 4492.86 392 4488.51 387.64 4488.97 327.74"/>
    <polygon class="cls-5" points="4488.51 387.64 4492.86 392 4186.33 392 4181.98 387.64 4488.51 387.64"/>
    <polygon class="cls-1" points="4378.83 315.66 4378.74 327.74 4488.97 327.74 4488.51 387.64 4181.98 387.64 4182.53 315.66 4378.83 315.66"/>
  </g>
  <g class="cls-2">
    <polygon class="cls-3" points="4520.44 326.76 4524.78 331.12 4524.64 349.74 4520.3 345.39 4520.44 326.76"/>
    <polygon class="cls-4" points="4519.7 357.97 4524.04 362.33 4523.48 370.88 4519.14 366.53 4519.7 357.97"/>
    <polygon class="cls-5" points="4536.81 357.97 4541.15 362.33 4524.04 362.33 4519.7 357.97 4536.81 357.97"/>
    <polygon class="cls-3" points="4536.91 345.39 4541.25 349.74 4541.15 362.33 4536.81 357.97 4536.91 345.39"/>
    <polygon class="cls-3" points="4546.31 366.53 4550.65 370.88 4550.46 395.55 4546.12 391.19 4546.31 366.53"/>
    <polygon class="cls-5" points="4546.12 391.19 4550.46 395.55 4497.14 392.03 4492.79 387.67 4546.12 391.19"/>
    <polygon class="cls-1" points="4520.44 326.76 4520.3 345.39 4536.91 345.39 4536.81 357.97 4519.7 357.97 4519.14 366.53 4546.31 366.53 4546.12 391.19 4492.79 387.67 4493.26 326.76 4520.44 326.76"/>
  </g>
  <g class="cls-2">
    <polygon class="cls-3" points="4374.88 395.77 4379.22 400.13 4379.13 412.21 4374.79 407.85 4374.88 395.77"/>
    <polygon class="cls-3" points="4485.01 407.85 4489.35 412.21 4488.9 472.11 4484.55 467.75 4485.01 407.85"/>
    <polygon class="cls-5" points="4484.55 467.75 4488.9 472.11 4182.37 472.11 4178.02 467.75 4484.55 467.75"/>
    <polygon class="cls-1" points="4374.88 395.77 4374.79 407.85 4485.01 407.85 4484.55 467.75 4178.02 467.75 4178.57 395.77 4374.88 395.77"/>
  </g>
  <g class="cls-2">
    <polygon class="cls-3" points="4516.48 406.87 4520.82 411.23 4520.68 429.85 4516.34 425.49 4516.48 406.87"/>
    <polygon class="cls-4" points="4515.74 438.07 4520.08 442.43 4519.52 450.99 4515.18 446.64 4515.74 438.07"/>
    <polygon class="cls-5" points="4532.86 438.07 4537.2 442.43 4520.08 442.43 4515.74 438.07 4532.86 438.07"/>
    <polygon class="cls-3" points="4532.96 425.49 4537.3 429.85 4537.2 442.43 4532.86 438.07 4532.96 425.49"/>
    <polygon class="cls-3" points="4542.35 446.64 4546.69 450.99 4546.5 475.66 4542.16 471.3 4542.35 446.64"/>
    <polygon class="cls-5" points="4542.16 471.3 4546.5 475.66 4493.18 472.14 4488.83 467.78 4542.16 471.3"/>
    <polygon class="cls-1" points="4516.48 406.87 4516.34 425.49 4532.96 425.49 4532.86 438.07 4515.74 438.07 4515.18 446.64 4542.35 446.64 4542.16 471.3 4488.83 467.78 4489.3 406.87 4516.48 406.87"/>
  </g>
  <g class="cls-2">
    <polygon class="cls-3" points="4372.22 504.11 4376.56 508.47 4376.47 520.56 4372.13 516.2 4372.22 504.11"/>
    <polygon class="cls-3" points="4482.37 516.2 4486.71 520.56 4486.25 580.45 4481.91 576.09 4482.37 516.2"/>
    <polygon class="cls-5" points="4481.91 576.09 4486.25 580.45 4179.71 580.45 4175.37 576.09 4481.91 576.09"/>
    <polygon class="cls-1" points="4372.22 504.11 4372.13 516.2 4482.37 516.2 4481.91 576.09 4175.37 576.09 4175.92 504.11 4372.22 504.11"/>
  </g>
  <g class="cls-2">
    <polygon class="cls-3" points="4513.83 515.22 4518.17 519.57 4518.03 538.2 4513.69 533.85 4513.83 515.22"/>
    <polygon class="cls-4" points="4513.09 546.42 4517.43 550.78 4516.86 559.34 4512.52 554.98 4513.09 546.42"/>
    <polygon class="cls-5" points="4530.2 546.42 4534.55 550.78 4517.43 550.78 4513.09 546.42 4530.2 546.42"/>
    <polygon class="cls-3" points="4530.3 533.85 4534.64 538.2 4534.55 550.78 4530.2 546.42 4530.3 533.85"/>
    <polygon class="cls-3" points="4539.71 554.98 4544.05 559.34 4543.86 584 4539.52 579.64 4539.71 554.98"/>
    <polygon class="cls-5" points="4539.52 579.64 4543.86 584 4490.53 580.48 4486.19 576.12 4539.52 579.64"/>
    <polygon class="cls-1" points="4513.83 515.22 4513.69 533.85 4530.3 533.85 4530.2 546.42 4513.09 546.42 4512.52 554.98 4539.71 554.98 4539.52 579.64 4486.19 576.12 4486.65 515.22 4513.83 515.22"/>
  </g>
  <g class="cls-2">
    <polygon class="cls-3" points="4370.26 588.22 4374.6 592.58 4374.51 604.66 4370.17 600.31 4370.26 588.22"/>
    <polygon class="cls-3" points="4480.4 600.31 4484.74 604.66 4484.29 664.55 4479.95 660.2 4480.4 600.31"/>
    <polygon class="cls-5" points="4479.95 660.2 4484.29 664.55 4177.76 664.55 4173.42 660.2 4479.95 660.2"/>
    <polygon class="cls-1" points="4370.26 588.22 4370.17 600.31 4480.4 600.31 4479.95 660.2 4173.42 660.2 4173.97 588.22 4370.26 588.22"/>
  </g>
  <g class="cls-2">
    <polygon class="cls-3" points="4511.88 599.32 4516.22 603.68 4516.07 622.31 4511.73 617.95 4511.88 599.32"/>
    <polygon class="cls-4" points="4511.14 630.53 4515.48 634.89 4514.9 643.44 4510.56 639.08 4511.14 630.53"/>
    <polygon class="cls-5" points="4528.24 630.53 4532.58 634.89 4515.48 634.89 4511.14 630.53 4528.24 630.53"/>
    <polygon class="cls-3" points="4528.34 617.95 4532.68 622.31 4532.58 634.89 4528.24 630.53 4528.34 617.95"/>
    <polygon class="cls-3" points="4537.74 639.08 4542.08 643.44 4541.9 668.11 4537.56 663.75 4537.74 639.08"/>
    <polygon class="cls-5" points="4537.56 663.75 4541.9 668.11 4488.57 664.58 4484.23 660.22 4537.56 663.75"/>
    <polygon class="cls-1" points="4511.88 599.32 4511.73 617.95 4528.34 617.95 4528.24 630.53 4511.14 630.53 4510.56 639.08 4537.74 639.08 4537.56 663.75 4484.23 660.22 4484.69 599.32 4511.88 599.32"/>
  </g>
  <g class="cls-2">
    <polygon class="cls-5" points="5602.06 679.35 5606.4 683.7 5600.34 683.7 5596 679.35 5602.06 679.35"/>
    <polygon class="cls-5" points="5879.59 718.61 5883.93 722.96 5600.04 722.96 5595.7 718.61 5879.59 718.61"/>
    <polygon class="cls-3" points="5880.07 655.94 5884.41 660.3 5883.93 722.96 5879.59 718.61 5880.07 655.94"/>
    <polygon class="cls-1" points="5880.07 655.94 5879.59 718.61 5595.7 718.61 5595.85 698.22 5601.91 698.22 5602.06 679.35 5596 679.35 5596.17 655.94 5880.07 655.94"/>
  </g>
  <g class="cls-2">
    <polygon class="cls-5" points="5602.06 590.95 5606.4 595.31 5600.34 595.31 5596 590.95 5602.06 590.95"/>
    <polygon class="cls-5" points="5879.59 630.21 5883.93 634.57 5600.04 634.57 5595.7 630.21 5879.59 630.21"/>
    <polygon class="cls-3" points="5880.07 567.54 5884.41 571.9 5883.93 634.57 5879.59 630.21 5880.07 567.54"/>
    <polygon class="cls-1" points="5880.07 567.54 5879.59 630.21 5595.7 630.21 5595.85 609.82 5601.91 609.82 5602.06 590.95 5596 590.95 5596.17 567.54 5880.07 567.54"/>
  </g>
  <g class="cls-2">
    <polygon class="cls-5" points="5602.06 490.9 5606.4 495.26 5600.34 495.26 5596 490.9 5602.06 490.9"/>
    <polygon class="cls-5" points="5879.59 530.16 5883.93 534.52 5600.04 534.52 5595.7 530.16 5879.59 530.16"/>
    <polygon class="cls-3" points="5880.07 467.5 5884.41 471.86 5883.93 534.52 5879.59 530.16 5880.07 467.5"/>
    <polygon class="cls-1" points="5880.07 467.5 5879.59 530.16 5595.7 530.16 5595.85 509.78 5601.91 509.78 5602.06 490.9 5596 490.9 5596.17 467.5 5880.07 467.5"/>
  </g>
  <g class="cls-2">
    <polygon class="cls-5" points="5602.06 402.51 5606.4 406.86 5600.34 406.86 5596 402.51 5602.06 402.51"/>
    <polygon class="cls-5" points="5879.59 441.77 5883.93 446.12 5600.04 446.12 5595.7 441.77 5879.59 441.77"/>
    <polygon class="cls-3" points="5880.07 379.1 5884.41 383.45 5883.93 446.12 5879.59 441.77 5880.07 379.1"/>
    <polygon class="cls-1" points="5880.07 379.1 5879.59 441.77 5595.7 441.77 5595.85 421.38 5601.91 421.38 5602.06 402.51 5596 402.51 5596.17 379.1 5880.07 379.1"/>
  </g>
  <g class="cls-2">
    <polygon class="cls-3" points="6234.75 369.73 6239.09 374.08 6238.94 394.47 6234.6 390.11 6234.75 369.73"/>
    <polygon class="cls-5" points="6234.6 390.11 6238.94 394.47 6232.83 394.47 6228.49 390.11 6234.6 390.11"/>
    <polygon class="cls-3" points="6228.49 390.11 6232.83 394.47 6232.69 413.35 6228.35 408.99 6228.49 390.11"/>
    <polygon class="cls-3" points="6234.45 408.99 6238.79 413.35 6238.62 436.76 6234.27 432.4 6234.45 408.99"/>
    <polygon class="cls-5" points="6234.27 432.4 6238.62 436.76 5952.46 436.76 5948.12 432.4 6234.27 432.4"/>
    <polygon class="cls-1" points="6234.75 369.73 6234.6 390.11 6228.49 390.11 6228.35 408.99 6234.45 408.99 6234.27 432.4 5948.12 432.4 5948.6 369.73 6234.75 369.73"/>
  </g>
  <g class="cls-2">
    <polygon class="cls-3" points="6234.75 458.13 6239.09 462.49 6238.94 482.87 6234.6 478.51 6234.75 458.13"/>
    <polygon class="cls-5" points="6234.6 478.51 6238.94 482.87 6232.83 482.87 6228.49 478.51 6234.6 478.51"/>
    <polygon class="cls-3" points="6228.49 478.51 6232.83 482.87 6232.69 501.75 6228.35 497.39 6228.49 478.51"/>
    <polygon class="cls-3" points="6234.45 497.39 6238.79 501.75 6238.62 525.15 6234.27 520.8 6234.45 497.39"/>
    <polygon class="cls-5" points="6234.27 520.8 6238.62 525.15 5952.46 525.15 5948.12 520.8 6234.27 520.8"/>
    <polygon class="cls-1" points="6234.75 458.13 6234.6 478.51 6228.49 478.51 6228.35 497.39 6234.45 497.39 6234.27 520.8 5948.12 520.8 5948.6 458.13 6234.75 458.13"/>
  </g>
  <g class="cls-2">
    <polygon class="cls-3" points="6230.76 562.82 6235.1 567.18 6234.94 587.57 6230.6 583.21 6230.76 562.82"/>
    <polygon class="cls-5" points="6230.6 583.21 6234.94 587.57 6228.84 587.57 6224.49 583.21 6230.6 583.21"/>
    <polygon class="cls-3" points="6224.49 583.21 6228.84 587.57 6228.69 606.44 6224.35 602.08 6224.49 583.21"/>
    <polygon class="cls-3" points="6230.46 602.08 6234.8 606.44 6234.62 629.85 6230.28 625.49 6230.46 602.08"/>
    <polygon class="cls-5" points="6230.28 625.49 6234.62 629.85 5948.47 629.85 5944.13 625.49 6230.28 625.49"/>
    <polygon class="cls-1" points="6230.76 562.82 6230.6 583.21 6224.49 583.21 6224.35 602.08 6230.46 602.08 6230.28 625.49 5944.13 625.49 5944.61 562.82 6230.76 562.82"/>
  </g>
  <g class="cls-2">
    <polygon class="cls-3" points="6230.76 649.6 6235.1 653.96 6234.94 674.35 6230.6 669.99 6230.76 649.6"/>
    <polygon class="cls-5" points="6230.6 669.99 6234.94 674.35 6228.84 674.35 6224.49 669.99 6230.6 669.99"/>
    <polygon class="cls-3" points="6224.49 669.99 6228.84 674.35 6228.69 693.22 6224.35 688.86 6224.49 669.99"/>
    <polygon class="cls-3" points="6230.46 688.86 6234.8 693.22 6234.62 716.63 6230.28 712.27 6230.46 688.86"/>
    <polygon class="cls-5" points="6230.28 712.27 6234.62 716.63 5948.47 716.63 5944.13 712.27 6230.28 712.27"/>
    <polygon class="cls-1" points="6230.76 649.6 6230.6 669.99 6224.49 669.99 6224.35 688.86 6230.46 688.86 6230.28 712.27 5944.13 712.27 5944.61 649.6 6230.76 649.6"/>
  </g>
  <g class="cls-2">
    <polygon class="cls-3" points="5421.2 530.41 5425.54 534.76 5425.05 598.39 5420.71 594.04 5421.2 530.41"/>
    <polygon class="cls-5" points="5420.71 594.04 5425.05 598.39 5160.04 598.39 5155.7 594.04 5420.71 594.04"/>
    <polygon class="cls-1" points="5421.2 530.41 5420.71 594.04 5155.7 594.04 5156.19 530.41 5421.2 530.41"/>
  </g>
  <g class="cls-2">
    <polygon class="cls-3" points="5421.2 649.12 5425.54 653.48 5425.05 717.11 5420.71 712.75 5421.2 649.12"/>
    <polygon class="cls-5" points="5420.71 712.75 5425.05 717.11 5160.04 717.11 5155.7 712.75 5420.71 712.75"/>
    <polygon class="cls-1" points="5421.2 649.12 5420.71 712.75 5155.7 712.75 5156.19 649.12 5421.2 649.12"/>
  </g>
  <g class="cls-2">
    <polygon class="cls-3" points="4983.52 485.05 4987.86 489.41 4987.37 553.05 4983.03 548.69 4983.52 485.05"/>
    <polygon class="cls-5" points="4983.03 548.69 4987.37 553.05 4722.36 553.05 4718.02 548.69 4983.03 548.69"/>
    <polygon class="cls-1" points="4983.52 485.05 4983.03 548.69 4718.02 548.69 4718.51 485.05 4983.52 485.05"/>
  </g>
  <g class="cls-2">
    <polygon class="cls-3" points="4983.52 588.2 4987.86 592.56 4987.37 656.19 4983.03 651.83 4983.52 588.2"/>
    <polygon class="cls-5" points="4983.03 651.83 4987.37 656.19 4722.36 656.19 4718.02 651.83 4983.03 651.83"/>
    <polygon class="cls-1" points="4983.52 588.2 4983.03 651.83 4718.02 651.83 4718.51 588.2 4983.52 588.2"/>
  </g>
  <g class="cls-2">
    <polygon class="cls-3" points="6677.41 564.65 6681.75 569.01 6681.26 632.64 6676.92 628.28 6677.41 564.65"/>
    <polygon class="cls-5" points="6676.92 628.28 6681.26 632.64 6416.25 632.64 6411.91 628.28 6676.92 628.28"/>
    <polygon class="cls-1" points="6677.41 564.65 6676.92 628.28 6411.91 628.28 6412.4 564.65 6677.41 564.65"/>
  </g>
  <g class="cls-2">
    <polygon class="cls-3" points="2268.31 507.8 2272.65 512.16 2272.16 575.79 2267.82 571.43 2268.31 507.8"/>
    <polygon class="cls-5" points="2267.82 571.43 2272.16 575.79 1917.18 575.79 1912.84 571.43 2267.82 571.43"/>
    <polygon class="cls-1" points="2268.31 507.8 2267.82 571.43 1912.84 571.43 1913.33 507.8 2268.31 507.8"/>
  </g>
  <g class="cls-2">
    <polygon class="cls-3" points="2273.17 406.24 2277.51 410.6 2277.03 474.23 2272.69 469.87 2273.17 406.24"/>
    <polygon class="cls-5" points="2272.69 469.87 2277.03 474.23 1922.05 474.23 1917.71 469.87 2272.69 469.87"/>
    <polygon class="cls-1" points="2273.17 406.24 2272.69 469.87 1917.71 469.87 1918.19 406.24 2273.17 406.24"/>
  </g>
</svg>